<mxfile host="65bd71144e">
    <diagram id="uC8G6ksb1FycRMjqeQnU" name="Página-1">
        <mxGraphModel dx="1100" dy="359" grid="0" gridSize="10" guides="1" tooltips="1" connect="1" arrows="1" fold="1" page="1" pageScale="1" pageWidth="1169" pageHeight="1654" math="0" shadow="0">
            <root>
                <mxCell id="0"/>
                <mxCell id="1" parent="0"/>
                <mxCell id="6" style="edgeStyle=none;html=1;exitX=1;exitY=0.5;exitDx=0;exitDy=0;entryX=0;entryY=0.5;entryDx=0;entryDy=0;" edge="1" parent="1" source="2" target="3">
                    <mxGeometry relative="1" as="geometry"/>
                </mxCell>
                <mxCell id="2" value="Pesquisar Cliente" style="rounded=1;whiteSpace=wrap;html=1;" vertex="1" parent="1">
                    <mxGeometry x="91" y="61" width="120" height="60" as="geometry"/>
                </mxCell>
                <mxCell id="7" style="edgeStyle=none;html=1;entryX=0;entryY=0.5;entryDx=0;entryDy=0;" edge="1" parent="1" source="3" target="4">
                    <mxGeometry relative="1" as="geometry"/>
                </mxCell>
                <mxCell id="3" value="Clicar no botão editar" style="rounded=1;whiteSpace=wrap;html=1;" vertex="1" parent="1">
                    <mxGeometry x="313" y="61" width="120" height="60" as="geometry"/>
                </mxCell>
                <mxCell id="8" style="edgeStyle=none;html=1;entryX=0;entryY=0;entryDx=62;entryDy=0;entryPerimeter=0;" edge="1" parent="1" source="4" target="5">
                    <mxGeometry relative="1" as="geometry"/>
                </mxCell>
                <mxCell id="4" value="Abrir campo para editar os dados" style="rounded=1;whiteSpace=wrap;html=1;" vertex="1" parent="1">
                    <mxGeometry x="549" y="61" width="120" height="60" as="geometry"/>
                </mxCell>
                <mxCell id="5" value="Significa ablitar o json para que os dados ssejam editado" style="shape=note;whiteSpace=wrap;html=1;backgroundOutline=1;darkOpacity=0.05;" vertex="1" parent="1">
                    <mxGeometry x="549" y="185" width="154" height="118" as="geometry"/>
                </mxCell>
            </root>
        </mxGraphModel>
    </diagram>
</mxfile>